<?xml version="1.0" encoding="UTF-8"?>
<svg width="9px" height="16px" viewBox="0 0 9 16" version="1.1" xmlns="http://www.w3.org/2000/svg" xmlns:xlink="http://www.w3.org/1999/xlink">
    <!-- Generator: Sketch 52.2 (67145) - http://www.bohemiancoding.com/sketch -->
    <title>facebook</title>
    <desc>Created with Sketch.</desc>
    <g id="SEO" stroke="none" stroke-width="1" fill="none" fill-rule="evenodd">
        <g id="Brand" transform="translate(-908.000000, -5368.000000)" fill="#564D8B">
            <g id="SocialMedia" transform="translate(894.000000, 5358.000000)">
                <g id="outlined" transform="translate(14.000000, 10.000000)">
                    <path d="M2.55902206,15.9999952 L2.55902206,8.84376229 L0.1527778,8.84376229 L0.1527778,6.00001907 L2.55902206,6.00001907 L2.55902206,3.75002444 C2.55902206,2.56252727 2.89235476,1.64065447 3.55901968,0.984406032 C4.2256846,0.328157596 5.11109947,3.33786011e-05 6.21526335,3.33786011e-05 C7.1110947,3.33786011e-05 7.84025947,0.041699787 8.40275813,0.125033081 L8.40275813,2.65627705 L6.90276171,2.65627705 C6.34026305,2.65627705 5.95484746,2.78127675 5.74651446,3.03127615 C5.57984835,3.23960915 5.49651506,3.57294137 5.49651506,4.03127377 L5.49651506,6.00001907 L8.15275873,6.00001907 L7.77775962,8.84376229 L5.49651506,8.84376229 L5.49651506,15.9999952 L2.55902206,15.9999952 Z" id="facebook"></path>
                </g>
            </g>
        </g>
    </g>
</svg>