<?xml version="1.0" encoding="UTF-8"?>
<svg width="15px" height="14px" viewBox="0 0 15 14" version="1.1" xmlns="http://www.w3.org/2000/svg" xmlns:xlink="http://www.w3.org/1999/xlink">
    <!-- Generator: Sketch 52.2 (67145) - http://www.bohemiancoding.com/sketch -->
    <title>instagram</title>
    <desc>Created with Sketch.</desc>
    <g id="SEO" stroke="none" stroke-width="1" fill="none" fill-rule="evenodd">
        <g id="Brand" transform="translate(-997.000000, -5369.000000)" fill="#564D8B">
            <g id="SocialMedia" transform="translate(894.000000, 5358.000000)">
                <g id="outlined" transform="translate(14.000000, 10.000000)">
                    <path d="M96.5555389,4.40627287 C97.2013709,4.40627287 97.8003275,4.56773098 98.3524096,4.89064672 C98.9044918,5.21356246 99.3419908,5.65106141 99.6649065,6.20314359 C99.9878222,6.75522577 100.14928,7.35418235 100.14928,8.00001431 C100.14928,8.64584626 99.9878222,9.24480285 99.6649065,9.79688502 C99.3419908,10.3489672 98.9044918,10.7864662 98.3524096,11.1093819 C97.8003275,11.4322976 97.2013709,11.5937557 96.5555389,11.5937557 C95.909707,11.5937557 95.3107504,11.4322976 94.7586682,11.1093819 C94.206586,10.7864662 93.7690871,10.3489672 93.4461713,9.79688502 C93.1232556,9.24480285 92.9617975,8.64584626 92.9617975,8.00001431 C92.9617975,7.35418235 93.1232556,6.75522577 93.4461713,6.20314359 C93.7690871,5.65106141 94.206586,5.21356246 94.7586682,4.89064672 C95.3107504,4.56773098 95.909707,4.40627287 96.5555389,4.40627287 Z M96.5555389,10.3437587 C97.2013709,10.3437587 97.7534526,10.1145928 98.211785,9.65626036 C98.6701174,9.19792796 98.8992833,8.64584626 98.8992833,8.00001431 C98.8992833,7.35418235 98.6701174,6.80210065 98.211785,6.34376825 C97.7534526,5.88543585 97.2013709,5.65626989 96.5555389,5.65626989 C95.909707,5.65626989 95.3576253,5.88543585 94.8992929,6.34376825 C94.4409605,6.80210065 94.2117945,7.35418235 94.2117945,8.00001431 C94.2117945,8.64584626 94.4409605,9.19792796 94.8992929,9.65626036 C95.3576253,10.1145928 95.909707,10.3437587 96.5555389,10.3437587 Z M101.149278,4.25002325 C101.128445,4.47918921 101.039903,4.67710572 100.883654,4.84377183 C100.727404,5.01043794 100.534696,5.09377123 100.30553,5.09377123 C100.076364,5.09377123 99.8784475,5.01043794 99.7117814,4.84377183 C99.5451153,4.67710572 99.461782,4.47918921 99.461782,4.25002325 C99.461782,4.02085728 99.5451153,3.82294077 99.7117814,3.65627466 C99.8784475,3.48960855 100.076364,3.40627526 100.30553,3.40627526 C100.534696,3.40627526 100.732612,3.48960855 100.899279,3.65627466 C101.065945,3.82294077 101.149278,4.02085728 101.149278,4.25002325 Z M103.524272,5.09377123 C103.545106,5.67710334 103.555522,6.64585103 103.555522,8.00001431 C103.555522,9.35417758 103.539897,10.3281338 103.508647,10.9218823 C103.477397,11.5156309 103.388856,12.0312547 103.243023,12.4687537 C103.055523,12.9895859 102.769066,13.4427098 102.38365,13.8281254 C101.998234,14.213541 101.545111,14.4999988 101.024278,14.6874984 C100.586779,14.8333315 100.071156,14.9218728 99.4774069,14.9531227 C98.8836584,14.9843727 97.9097022,14.9999976 96.5555389,14.9999976 C95.2013756,14.9999976 94.2274195,14.9843727 93.6336709,14.9531227 C93.0399223,14.9218728 92.5242985,14.8229145 92.0867996,14.6562484 C91.5659673,14.4895823 91.1128434,14.213541 90.7274278,13.8281254 C90.3420122,13.4427098 90.0555544,12.9895859 89.8680549,12.4687537 C89.7222217,12.0312547 89.6336804,11.5156309 89.6024305,10.9218823 C89.5711806,10.3281338 89.5555556,9.35417758 89.5555556,8.00001431 C89.5555556,6.64585103 89.5711806,5.67189486 89.6024305,5.07814627 C89.6336804,4.48439769 89.7222217,3.96877392 89.8680549,3.53127496 C90.0555544,3.01044271 90.3420122,2.55731879 90.7274278,2.1719032 C91.1128434,1.78648761 91.5659673,1.5000298 92.0867996,1.31253025 C92.5242985,1.1666971 93.0399223,1.07815581 93.6336709,1.04690588 C94.2274195,1.01565596 95.2013756,1.00003099 96.5555389,1.00003099 C97.9097022,1.00003099 98.8836584,1.01565596 99.4774069,1.04690588 C100.071156,1.07815581 100.586779,1.1666971 101.024278,1.31253025 C101.545111,1.5000298 101.998234,1.78648761 102.38365,2.1719032 C102.769066,2.55731879 103.055523,3.01044271 103.243023,3.53127496 C103.388856,3.96877392 103.482606,4.48960617 103.524272,5.09377123 Z M102.024276,12.1250045 C102.149276,11.7708388 102.232609,11.2083401 102.274275,10.4375085 C102.295109,9.97917609 102.305525,9.33334462 102.305525,8.50001311 L102.305525,7.5000155 C102.305525,6.64585103 102.295109,6.00001907 102.274275,5.56252012 C102.232609,4.7708555 102.149276,4.20835684 102.024276,3.87502414 C101.774276,3.22919219 101.326361,2.78127675 100.680529,2.53127734 C100.347196,2.40627764 99.7846977,2.32294435 98.9930331,2.28127794 C98.5347007,2.2604445 97.8888692,2.25002801 97.0555377,2.25002801 L96.0555401,2.25002801 C95.2222086,2.25002801 94.5763771,2.2604445 94.1180447,2.28127794 C93.3472131,2.32294435 92.7847144,2.40627764 92.4305487,2.53127734 C91.7847168,2.78127675 91.3368014,3.22919219 91.0868019,3.87502414 C90.9618022,4.20835684 90.878469,4.7708555 90.8368025,5.56252012 C90.8159691,6.02085252 90.8055526,6.66668399 90.8055526,7.5000155 L90.8055526,8.50001311 C90.8055526,9.33334462 90.8159691,9.97917609 90.8368025,10.4375085 C90.878469,11.2083401 90.9618022,11.7708388 91.0868019,12.1250045 C91.3576348,12.7708364 91.8055502,13.2187519 92.4305487,13.4687513 C92.7847144,13.593751 93.3472131,13.6770843 94.1180447,13.7187507 C94.5763771,13.7395841 95.2222086,13.7500006 96.0555401,13.7500006 L97.0555377,13.7500006 C97.9097022,13.7500006 98.5555341,13.7395841 98.9930331,13.7187507 C99.7846977,13.6770843 100.347196,13.593751 100.680529,13.4687513 C101.326361,13.1979184 101.774276,12.750003 102.024276,12.1250045 Z" id="instagram"></path>
                </g>
            </g>
        </g>
    </g>
</svg>