<?xml version="1.0" encoding="UTF-8"?>
<svg width="15px" height="14px" viewBox="0 0 15 14" version="1.1" xmlns="http://www.w3.org/2000/svg" xmlns:xlink="http://www.w3.org/1999/xlink">
    <!-- Generator: Sketch 52.2 (67145) - http://www.bohemiancoding.com/sketch -->
    <title>linkedin</title>
    <desc>Created with Sketch.</desc>
    <g id="SEO" stroke="none" stroke-width="1" fill="none" fill-rule="evenodd">
        <g id="Brand" transform="translate(-1043.000000, -5368.000000)" fill="#564D8B">
            <g id="SocialMedia" transform="translate(894.000000, 5358.000000)">
                <g id="outlined" transform="translate(14.000000, 10.000000)">
                    <path d="M138.680548,14 L135.774305,14 L135.774305,4.65627228 L138.680548,4.65627228 L138.680548,14 Z M137.243052,3.37502533 C136.784719,3.37502533 136.388887,3.20835922 136.055554,2.87502652 C135.722222,2.54169383 135.555556,2.14586175 135.555556,1.68752936 C135.555556,1.22919696 135.722222,0.833364884 136.055554,0.500032187 C136.388887,0.166699489 136.784719,3.33786011e-05 137.243052,3.33786011e-05 C137.701384,3.33786011e-05 138.097216,0.166699489 138.430549,0.500032187 C138.763881,0.833364884 138.930548,1.22919696 138.930548,1.68752936 C138.930548,2.14586175 138.763881,2.54169383 138.430549,2.87502652 C138.097216,3.20835922 137.701384,3.37502533 137.243052,3.37502533 Z M149.555522,14 L146.649279,14 L146.649279,9.43751088 C146.649279,8.68751267 146.586779,8.14584745 146.46178,7.81251475 C146.232614,7.25001609 145.784698,6.96876676 145.118033,6.96876676 C144.451368,6.96876676 143.982619,7.21876617 143.711786,7.71876498 C143.503453,8.09376408 143.399287,8.64584626 143.399287,9.37501103 L143.399287,14 L140.524294,14 L140.524294,4.65627228 L143.305537,4.65627228 L143.305537,5.93751922 L143.336787,5.93751922 C143.54512,5.52085371 143.878452,5.17710453 144.336785,4.90627168 C144.836783,4.57293898 145.420116,4.40627287 146.08678,4.40627287 C147.440944,4.40627287 148.388858,4.83335535 148.930524,5.68751982 C149.347189,6.37501818 149.555522,7.43751565 149.555522,8.87501222 L149.555522,14 Z" id="linkedin"></path>
                </g>
            </g>
        </g>
    </g>
</svg>