<?xml version="1.0" encoding="UTF-8"?>
<svg width="17px" height="14px" viewBox="0 0 17 14" version="1.1" xmlns="http://www.w3.org/2000/svg" xmlns:xlink="http://www.w3.org/1999/xlink">
    <!-- Generator: Sketch 52.2 (67145) - http://www.bohemiancoding.com/sketch -->
    <title>twitter</title>
    <desc>Created with Sketch.</desc>
    <g id="SEO" stroke="none" stroke-width="1" fill="none" fill-rule="evenodd">
        <g id="Brand" transform="translate(-949.000000, -5369.000000)" fill="#564D8B">
            <g id="SocialMedia" transform="translate(894.000000, 5358.000000)">
                <g id="outlined" transform="translate(14.000000, 10.000000)">
                    <path d="M55.8992714,4.75002205 C55.9201048,4.83335535 55.9305213,4.96877153 55.9305213,5.15627109 C55.9305213,6.65626751 55.5659387,8.10418056 54.8367739,9.50001073 C54.0867757,10.9791737 53.0346947,12.1562544 51.6805315,13.0312523 C50.2013685,14.0104165 48.5034555,14.4999988 46.5867936,14.4999988 C44.7534645,14.4999988 43.0763855,14.0104165 41.5555556,13.0312523 C41.7847216,13.0520858 42.0451379,13.0625022 42.3368037,13.0625022 C43.8576336,13.0625022 45.2222134,12.5937534 46.430544,11.6562556 C45.7013792,11.6562556 45.0607557,11.4427146 44.5086736,11.0156321 C43.9565914,10.5885496 43.5763843,10.0520929 43.3680513,9.40626095 C43.5763843,9.42709439 43.7743003,9.43751088 43.9617999,9.43751088 C44.2534657,9.43751088 44.545132,9.40626095 44.8367978,9.3437611 C44.0867996,9.17709499 43.4618011,8.79167893 42.9618022,8.18751386 C42.4618034,7.58334879 42.211804,6.89585043 42.211804,6.12501878 L42.211804,6.06251892 C42.6701364,6.33335177 43.1597183,6.47918444 43.6805505,6.50001788 C43.2430516,6.18751863 42.8888859,5.79168608 42.6180531,5.31252071 C42.3472202,4.83335535 42.211804,4.30731462 42.211804,3.73439948 C42.211804,3.16148433 42.3680537,2.61461064 42.6805529,2.09377839 C43.493051,3.11460945 44.4878401,3.92710751 45.6649208,4.53127258 C46.8420015,5.13543764 48.0972065,5.46877034 49.4305368,5.53127019 C49.3888704,5.28127079 49.368037,5.03127138 49.368037,4.78127198 C49.368037,4.19793988 49.5138701,3.65106618 49.8055359,3.14065089 C50.0972017,2.6302356 50.4930343,2.22919457 50.9930331,1.93752876 C51.4930319,1.64586295 52.0346971,1.5000298 52.6180292,1.5000298 C53.0971946,1.5000298 53.539902,1.59377958 53.9461511,1.78127913 C54.3524001,1.96877868 54.7117742,2.21877809 55.0242735,2.53127734 C55.7742717,2.3854442 56.4721865,2.12502831 57.1180185,1.75002921 C56.8680191,2.52086086 56.3888537,3.12502593 55.6805219,3.56252488 C56.3055204,3.47919159 56.9305189,3.302109 57.5555175,3.03127615 C57.0971851,3.69794107 56.5451034,4.27085669 55.8992714,4.75002205 Z" id="twitter"></path>
                </g>
            </g>
        </g>
    </g>
</svg>